<svg width="48" height="30" viewBox="0 0 48 30" fill="none" xmlns="http://www.w3.org/2000/svg">
<mask id="path-1-inside-1_5_124" fill="white">
<path fill-rule="evenodd" clip-rule="evenodd" d="M0 0H48V30H0V0ZM42 15.5C42 19.0899 39.0898 22 35.5 22C31.9102 22 29 19.0899 29 15.5C29 11.9101 31.9102 9 35.5 9C39.0898 9 42 11.9101 42 15.5ZM13.5 22C17.0898 22 20 19.0899 20 15.5C20 11.9101 17.0898 9 13.5 9C9.91016 9 7 11.9101 7 15.5C7 19.0899 9.91016 22 13.5 22Z"/>
</mask>
<path fill-rule="evenodd" clip-rule="evenodd" d="M0 0H48V30H0V0ZM42 15.5C42 19.0899 39.0898 22 35.5 22C31.9102 22 29 19.0899 29 15.5C29 11.9101 31.9102 9 35.5 9C39.0898 9 42 11.9101 42 15.5ZM13.5 22C17.0898 22 20 19.0899 20 15.5C20 11.9101 17.0898 9 13.5 9C9.91016 9 7 11.9101 7 15.5C7 19.0899 9.91016 22 13.5 22Z" fill="#F4F4F4"/>
<path d="M48 0H49V-1H48V0ZM0 0V-1H-1V0H0ZM48 30V31H49V30H48ZM0 30H-1V31H0V30ZM48 -1H0V1H48V-1ZM49 30V0H47V30H49ZM0 31H48V29H0V31ZM-1 0V30H1V0H-1ZM35.5 23C39.6421 23 43 19.6421 43 15.5H41C41 18.5376 38.5376 21 35.5 21V23ZM28 15.5C28 19.6421 31.3579 23 35.5 23V21C32.4624 21 30 18.5376 30 15.5H28ZM35.5 8C31.3579 8 28 11.3579 28 15.5H30C30 12.4624 32.4624 10 35.5 10V8ZM43 15.5C43 11.3579 39.6421 8 35.5 8V10C38.5376 10 41 12.4624 41 15.5H43ZM19 15.5C19 18.5376 16.5376 21 13.5 21V23C17.6421 23 21 19.6421 21 15.5H19ZM13.5 10C16.5376 10 19 12.4624 19 15.5H21C21 11.3579 17.6421 8 13.5 8V10ZM8 15.5C8 12.4624 10.4624 10 13.5 10V8C9.35787 8 6 11.3579 6 15.5H8ZM13.5 21C10.4624 21 8 18.5376 8 15.5H6C6 19.6421 9.35787 23 13.5 23V21Z" fill="#F4F4F4" mask="url(#path-1-inside-1_5_124)"/>
</svg>
