<svg width="69" height="43" viewBox="0 0 69 43" fill="none" xmlns="http://www.w3.org/2000/svg">
<mask id="path-1-inside-1_5_255" fill="white">
<path fill-rule="evenodd" clip-rule="evenodd" d="M0 0H68.8V43H0V0ZM60.1997 22.2166C60.1997 27.362 56.0285 31.5332 50.8831 31.5332C45.7376 31.5332 41.5664 27.362 41.5664 22.2166C41.5664 17.0711 45.7376 12.8999 50.8831 12.8999C56.0285 12.8999 60.1997 17.0711 60.1997 22.2166ZM19.3499 31.5332C24.4953 31.5332 28.6665 27.362 28.6665 22.2166C28.6665 17.0711 24.4953 12.8999 19.3499 12.8999C14.2044 12.8999 10.0332 17.0711 10.0332 22.2166C10.0332 27.362 14.2044 31.5332 19.3499 31.5332Z"/>
</mask>
<path fill-rule="evenodd" clip-rule="evenodd" d="M0 0H68.8V43H0V0ZM60.1997 22.2166C60.1997 27.362 56.0285 31.5332 50.8831 31.5332C45.7376 31.5332 41.5664 27.362 41.5664 22.2166C41.5664 17.0711 45.7376 12.8999 50.8831 12.8999C56.0285 12.8999 60.1997 17.0711 60.1997 22.2166ZM19.3499 31.5332C24.4953 31.5332 28.6665 27.362 28.6665 22.2166C28.6665 17.0711 24.4953 12.8999 19.3499 12.8999C14.2044 12.8999 10.0332 17.0711 10.0332 22.2166C10.0332 27.362 14.2044 31.5332 19.3499 31.5332Z" fill="#17EA85"/>
<path d="M68.8 0H70.2333V-1.43333H68.8V0ZM0 0V-1.43333H-1.43333V0H0ZM68.8 43V44.4333H70.2333V43H68.8ZM0 43H-1.43333V44.4333H0V43ZM68.8 -1.43333H0V1.43333H68.8V-1.43333ZM70.2333 43V0H67.3667V43H70.2333ZM0 44.4333H68.8V41.5667H0V44.4333ZM-1.43333 0V43H1.43333V0H-1.43333ZM50.8831 32.9666C56.8201 32.9666 61.6331 28.1536 61.6331 22.2166H58.7664C58.7664 26.5704 55.2369 30.0999 50.8831 30.0999V32.9666ZM40.1331 22.2166C40.1331 28.1536 44.946 32.9666 50.8831 32.9666V30.0999C46.5292 30.0999 42.9997 26.5704 42.9997 22.2166H40.1331ZM50.8831 11.4666C44.946 11.4666 40.1331 16.2795 40.1331 22.2166H42.9997C42.9997 17.8627 46.5292 14.3332 50.8831 14.3332V11.4666ZM61.6331 22.2166C61.6331 16.2795 56.8201 11.4666 50.8831 11.4666V14.3332C55.2369 14.3332 58.7664 17.8627 58.7664 22.2166H61.6331ZM27.2332 22.2166C27.2332 26.5704 23.7037 30.0999 19.3499 30.0999V32.9666C25.2869 32.9666 30.0999 28.1536 30.0999 22.2166H27.2332ZM19.3499 14.3332C23.7037 14.3332 27.2332 17.8627 27.2332 22.2166H30.0999C30.0999 16.2795 25.2869 11.4666 19.3499 11.4666V14.3332ZM11.4665 22.2166C11.4665 17.8627 14.996 14.3332 19.3499 14.3332V11.4666C13.4128 11.4666 8.59987 16.2795 8.59987 22.2166H11.4665ZM19.3499 30.0999C14.996 30.0999 11.4665 26.5704 11.4665 22.2166H8.59987C8.59987 28.1536 13.4128 32.9666 19.3499 32.9666V30.0999Z" fill="#17EA85" mask="url(#path-1-inside-1_5_255)"/>
</svg>
